<svg width="32" height="33" viewBox="0 0 32 33" fill="none" xmlns="http://www.w3.org/2000/svg">
<path fill-rule="evenodd" clip-rule="evenodd" d="M0.878741 26.8787C-0.292832 28.0502 -0.292832 29.9497 0.878741 31.1213C2.05031 32.2929 3.94981 32.2929 5.12138 31.1213L15.5001 20.7426L26.3346 31.5771C27.5062 32.7487 29.4057 32.7487 30.5772 31.5771C31.7488 30.4056 31.7488 28.5061 30.5772 27.3345L19.7427 16.5L30.5772 5.66546C31.7488 4.49389 31.7488 2.59439 30.5772 1.42282C29.4057 0.251248 27.5062 0.251249 26.3346 1.42282L15.5001 12.2573L5.12138 1.87866C3.94981 0.707092 2.05031 0.707092 0.878741 1.87866C-0.292832 3.05024 -0.292832 4.94973 0.878741 6.1213L11.2574 16.5L0.878741 26.8787Z" fill="#F52602"/>
</svg>
