<svg width="42" height="32" viewBox="0 0 42 32" fill="none" xmlns="http://www.w3.org/2000/svg">
<path fill-rule="evenodd" clip-rule="evenodd" d="M0 3C0 1.34315 1.34315 0 3 0H39C40.6569 0 42 1.34315 42 3C42 4.65685 40.6569 6 39 6H3C1.34315 6 0 4.65685 0 3ZM0 16C0 14.3431 1.34315 13 3 13H39C40.6569 13 42 14.3431 42 16C42 17.6569 40.6569 19 39 19H3C1.34315 19 0 17.6569 0 16ZM3 26C1.34315 26 0 27.3431 0 29C0 30.6569 1.34315 32 3 32H39C40.6569 32 42 30.6569 42 29C42 27.3431 40.6569 26 39 26H3Z" fill="#F52602"/>
</svg>
