<svg width="207" height="207" viewBox="0 0 207 207" fill="none" xmlns="http://www.w3.org/2000/svg">
<path fill-rule="evenodd" clip-rule="evenodd" d="M104.64 0.5C108.782 0.5 112.14 3.85786 112.14 8V27.7849C112.14 31.927 108.782 35.2849 104.64 35.2849C100.498 35.2849 97.1396 31.927 97.1396 27.7849V8C97.1396 3.85786 100.498 0.5 104.64 0.5ZM167.801 104.641C167.801 139.943 139.182 168.561 103.88 168.561C68.5781 168.561 39.96 139.943 39.96 104.641C39.96 69.3388 68.5781 40.7207 103.88 40.7207C139.182 40.7207 167.801 69.3388 167.801 104.641ZM112.14 179.215C112.14 175.073 108.782 171.715 104.64 171.715C100.498 171.715 97.1396 175.073 97.1396 179.215V199C97.1396 203.142 100.498 206.5 104.64 206.5C108.782 206.5 112.14 203.142 112.14 199V179.215ZM206.5 104.642C206.5 108.784 203.142 112.142 199 112.142H179.215C175.073 112.142 171.715 108.784 171.715 104.642C171.715 100.499 175.073 97.1416 179.215 97.1416H199C203.142 97.1416 206.5 100.499 206.5 104.642ZM27.7852 112.142C31.9273 112.142 35.2852 108.784 35.2852 104.642C35.2852 100.499 31.9273 97.1416 27.7852 97.1416H8.0003C3.85816 97.1416 0.500296 100.499 0.500296 104.642C0.500295 108.784 3.85816 112.142 8.0003 112.142H27.7852ZM176.333 31.809C179.262 34.7379 179.262 39.4867 176.333 42.4156L162.343 56.4056C159.414 59.3345 154.665 59.3345 151.736 56.4056C148.807 53.4767 148.807 48.7279 151.736 45.799L165.726 31.809C168.655 28.8801 173.404 28.8801 176.333 31.809ZM55.2642 163.484C58.1932 160.555 58.1932 155.806 55.2642 152.877C52.3353 149.948 47.5866 149.948 44.6576 152.877L30.6676 166.867C27.7387 169.796 27.7387 174.545 30.6676 177.474C33.5966 180.403 38.3453 180.403 41.2742 177.474L55.2642 163.484ZM176.333 177.473C173.404 180.402 168.655 180.402 165.726 177.473L151.736 163.483C148.807 160.554 148.807 155.806 151.736 152.877C154.665 149.948 159.414 149.948 162.343 152.877L176.333 166.867C179.262 169.796 179.262 174.544 176.333 177.473ZM44.6576 56.4058C47.5866 59.3348 52.3353 59.3348 55.2642 56.4058C58.1932 53.4769 58.1932 48.7282 55.2642 45.7992L41.2742 31.8092C38.3453 28.8803 33.5966 28.8803 30.6676 31.8092C27.7387 34.7382 27.7387 39.4869 30.6676 42.4158L44.6576 56.4058Z" fill="#F7AF19"/>
</svg>
