<svg width="1512" height="566" viewBox="0 0 1512 566" fill="none" xmlns="http://www.w3.org/2000/svg">
<path d="M-16 673.111V244.111C447 244.111 516 4.11065 1019 10.1107C1421.4 14.9107 1568 168.111 1591 244.111V673.111H-16Z" fill="#272F4E"/>
<path d="M-21 673.111V678.111H-16H1591H1596V673.111V244.111V243.371L1595.79 242.662C1583.78 203.003 1540.21 144.809 1449.65 96.009C1358.95 47.1414 1220.87 7.51827 1019.06 5.11101C766.539 2.09884 622.786 60.9052 484.527 120.266C480.74 121.892 476.957 123.519 473.175 125.145C339.285 182.707 208.089 239.111 -16 239.111H-21V244.111V673.111Z" stroke="white" stroke-opacity="0.4" stroke-width="10" stroke-linecap="round"/>
<path d="M690.693 528.016L690.165 526.64H685.605L685.077 528.016H682.133L686.437 516.832H689.317L693.637 528.016H690.693ZM686.645 523.92H689.125L687.877 520.688L686.645 523.92ZM698.4 516.832V525.28H704.592V528.016H695.68V516.832H698.4ZM709.556 516.832V525.28H715.748V528.016H706.836V516.832H709.556ZM732.801 520.288C732.801 521.536 732.129 522.64 731.137 523.248L733.057 528.016H730.065L728.401 523.76H725.665V528.016H722.945V516.832H729.329C731.233 516.832 732.801 518.384 732.801 520.288ZM729.329 521.04C729.729 521.04 730.065 520.704 730.065 520.288C730.065 519.888 729.729 519.552 729.329 519.552H725.665V521.04H729.329ZM735.941 527.984V516.832H738.661V527.984H735.941ZM746.715 524.24V521.52H751.707V525.984L751.323 526.384C750.299 527.44 748.587 528.128 746.939 528.128C743.787 528.128 741.227 525.568 741.227 522.416C741.227 519.264 743.787 516.704 746.939 516.704C748.603 516.704 750.187 517.44 751.275 518.704L749.211 520.48C748.635 519.808 747.803 519.424 746.939 519.424C745.291 519.424 743.947 520.768 743.947 522.416C743.947 524.064 745.291 525.392 746.939 525.392C747.643 525.392 748.427 525.152 748.987 524.8V524.24H746.715ZM761.25 521.456V516.864H763.97V528.016H761.25V524.176H756.978V528.016H754.258V516.864H756.978V521.456H761.25ZM776.44 516.832V519.552H772.92V528.016H770.2V519.552H766.68V516.832H776.44ZM782.443 519.024C781.979 519.136 781.451 519.456 781.611 520.016L781.659 520.128C781.867 520.496 782.235 520.624 782.603 520.752C783.451 521.024 784.347 521.216 785.179 521.568C785.515 521.712 785.851 521.888 786.155 522.096C786.587 522.4 786.971 522.784 787.211 523.264C787.659 524.128 787.627 525.2 787.179 526.08C786.747 526.944 785.947 527.616 785.051 528C784.155 528.384 783.147 528.48 782.187 528.416C780.603 528.304 779.035 527.728 777.883 526.64L780.075 524.608C780.907 525.44 782.091 525.92 783.259 525.888C783.899 525.872 784.667 525.584 784.555 524.832C784.539 524.768 784.523 524.72 784.507 524.688C784.283 524.192 783.819 524 783.371 523.856C782.667 523.616 781.931 523.472 781.227 523.232C780.523 522.992 779.835 522.656 779.339 522.096C778.811 521.536 778.539 520.768 778.539 520C778.555 519.232 778.859 518.464 779.387 517.904C779.947 517.264 780.747 516.88 781.579 516.656C782.603 516.368 783.691 516.352 784.731 516.56C785.803 516.768 786.827 517.232 787.691 517.92L786.779 518.8C786.379 519.2 785.947 519.6 785.531 520C784.779 519.152 783.547 518.752 782.443 519.024ZM804.739 520.288C804.739 521.536 804.067 522.64 803.075 523.248L804.995 528.016H802.003L800.339 523.76H797.603V528.016H794.883V516.832H801.267C803.171 516.832 804.739 518.384 804.739 520.288ZM801.267 521.04C801.667 521.04 802.003 520.704 802.003 520.288C802.003 519.888 801.667 519.552 801.267 519.552H797.603V521.04H801.267ZM807.398 527.984V516.832H816.15V519.568H810.118V521.056H814.838V523.776H810.118V525.264H816.15V527.984H807.398ZM822.958 519.024C822.494 519.136 821.966 519.456 822.126 520.016L822.174 520.128C822.382 520.496 822.75 520.624 823.118 520.752C823.966 521.024 824.862 521.216 825.694 521.568C826.03 521.712 826.366 521.888 826.67 522.096C827.102 522.4 827.486 522.784 827.726 523.264C828.174 524.128 828.142 525.2 827.694 526.08C827.262 526.944 826.462 527.616 825.566 528C824.67 528.384 823.662 528.48 822.702 528.416C821.118 528.304 819.55 527.728 818.398 526.64L820.59 524.608C821.422 525.44 822.606 525.92 823.774 525.888C824.414 525.872 825.182 525.584 825.07 524.832C825.054 524.768 825.038 524.72 825.022 524.688C824.798 524.192 824.334 524 823.886 523.856C823.182 523.616 822.446 523.472 821.742 523.232C821.038 522.992 820.35 522.656 819.854 522.096C819.326 521.536 819.054 520.768 819.054 520C819.07 519.232 819.374 518.464 819.902 517.904C820.462 517.264 821.262 516.88 822.094 516.656C823.118 516.368 824.206 516.352 825.246 516.56C826.318 516.768 827.342 517.232 828.206 517.92L827.294 518.8C826.894 519.2 826.462 519.6 826.046 520C825.294 519.152 824.062 518.752 822.958 519.024ZM830.602 527.984V516.832H839.354V519.568H833.322V521.056H838.042V523.776H833.322V525.264H839.354V527.984H830.602ZM851.77 520.288C851.77 521.536 851.098 522.64 850.106 523.248L852.026 528.016H849.034L847.37 523.76H844.634V528.016H841.914V516.832H848.298C850.202 516.832 851.77 518.384 851.77 520.288ZM848.298 521.04C848.698 521.04 849.034 520.704 849.034 520.288C849.034 519.888 848.698 519.552 848.298 519.552H844.634V521.04H848.298ZM861.614 528.016H858.734L854.43 516.816H857.374L860.174 524.144L862.99 516.816H865.934L861.614 528.016ZM867.852 527.984V516.832H876.604V519.568H870.572V521.056H875.292V523.776H870.572V525.264H876.604V527.984H867.852ZM883.9 516.832C886.972 516.832 889.468 519.344 889.468 522.416C889.468 525.488 886.972 527.984 883.9 527.984H879.164V516.832H883.9ZM883.9 525.264C885.468 525.264 886.748 523.984 886.748 522.416C886.748 520.848 885.468 519.568 883.9 519.568H881.884V525.264H883.9Z" fill="white"/>
</svg>
